<svg xmlns="http://www.w3.org/2000/svg" viewBox="0 0 1200 1800" preserveAspectRatio="xMidYMid slice">
  <defs>
    <linearGradient id="table" x1="0" x2="1" y1="0" y2="1">
      <stop offset="0" stop-color="#8c5f36"/>
      <stop offset="0.42" stop-color="#d6b681"/>
      <stop offset="0.72" stop-color="#f2dfb9"/>
      <stop offset="1" stop-color="#a97645"/>
    </linearGradient>
    <radialGradient id="coffee" cx="50%" cy="50%" r="50%">
      <stop offset="0" stop-color="#4c2c16"/>
      <stop offset="0.52" stop-color="#6f4324"/>
      <stop offset="0.55" stop-color="#f6ead2"/>
      <stop offset="0.68" stop-color="#f6ead2"/>
      <stop offset="0.7" stop-color="#8d6a4d"/>
      <stop offset="1" stop-color="rgba(141,106,77,0)"/>
    </radialGradient>
    <filter id="blur"><feGaussianBlur stdDeviation="10"/></filter>
  </defs>
  <rect width="1200" height="1800" fill="url(#table)"/>
  <path d="M0 0h1200v1800H0z" fill="rgba(255,247,226,.18)"/>
  <circle cx="168" cy="190" r="170" fill="url(#coffee)" opacity=".9"/>
  <ellipse cx="170" cy="190" rx="220" ry="190" fill="rgba(52,31,16,.16)" filter="url(#blur)"/>
  <path d="M900 75c120 120 150 290 82 420-70-120-128-225-82-420Z" fill="#6a8a54" opacity=".25"/>
  <path d="M1010 112c70 95 82 205 22 305-42-120-65-215-22-305Z" fill="#7d9c5f" opacity=".22"/>
  <rect x="760" y="1225" width="310" height="90" rx="45" fill="rgba(96,57,28,.18)" filter="url(#blur)"/>
  <path d="M0 1260c250-70 448-52 665 28 197 73 377 72 535 16v496H0z" fill="rgba(92,58,30,.11)"/>
</svg>
