<svg xmlns="http://www.w3.org/2000/svg" viewBox="0 0 1200 1800" preserveAspectRatio="xMidYMid slice">
  <defs>
    <linearGradient id="night" x1="0" x2="1" y1="0" y2="1">
      <stop offset="0" stop-color="#182330"/>
      <stop offset="0.42" stop-color="#334152"/>
      <stop offset="0.78" stop-color="#704631"/>
      <stop offset="1" stop-color="#d17338"/>
    </linearGradient>
    <radialGradient id="fire" cx="50%" cy="70%" r="50%">
      <stop offset="0" stop-color="#ffd27a"/>
      <stop offset="0.38" stop-color="#e57237"/>
      <stop offset="1" stop-color="#1b2430"/>
    </radialGradient>
  </defs>
  <rect width="1200" height="1800" fill="url(#night)"/>
  <circle cx="600" cy="1520" r="460" fill="url(#fire)" opacity="0.56"/>
  <path d="M0 1280c170-80 350-95 520-34 185 66 392 88 680-68v622H0z" fill="#221b18" opacity="0.42"/>
  <g opacity="0.32" fill="#ffb45c">
    <path d="M575 1350c-80 88-64 180 26 252 92-88 92-172-26-252Z"/>
    <path d="M650 1370c-48 74-42 140 14 198 70-74 72-138-14-198Z"/>
  </g>
  <circle cx="960" cy="210" r="5" fill="#f5e8c8" opacity="0.8"/>
  <circle cx="760" cy="145" r="4" fill="#f5e8c8" opacity="0.6"/>
  <circle cx="240" cy="260" r="4" fill="#f5e8c8" opacity="0.7"/>
</svg>
