<svg xmlns="http://www.w3.org/2000/svg" viewBox="0 0 1200 1800" preserveAspectRatio="xMidYMid slice">
  <defs>
    <linearGradient id="patio" x1="0" x2="1" y1="0" y2="1">
      <stop offset="0" stop-color="#d9bd7c"/>
      <stop offset="0.42" stop-color="#f1dfac"/>
      <stop offset="0.72" stop-color="#bdd39a"/>
      <stop offset="1" stop-color="#789d67"/>
    </linearGradient>
  </defs>
  <rect width="1200" height="1800" fill="url(#patio)"/>
  <circle cx="160" cy="160" r="220" fill="#fff9df" opacity="0.55"/>
  <g opacity="0.32" fill="#416c3f">
    <ellipse cx="1010" cy="130" rx="62" ry="150" transform="rotate(22 1010 130)"/>
    <ellipse cx="1080" cy="260" rx="54" ry="135" transform="rotate(-18 1080 260)"/>
    <ellipse cx="910" cy="300" rx="58" ry="145" transform="rotate(42 910 300)"/>
  </g>
  <path d="M0 1060c195-88 380-70 560-10 240 78 412 90 640-35v785H0z" fill="#855c2d" opacity="0.16"/>
  <path d="M0 1160c220-35 420-8 640 42 180 41 340 26 560-66v664H0z" fill="#fff8d8" opacity="0.18"/>
</svg>
