<svg xmlns="http://www.w3.org/2000/svg" viewBox="0 0 1200 1800" preserveAspectRatio="xMidYMid slice">
  <defs>
    <linearGradient id="trail" x1="0" x2="1" y1="0" y2="1">
      <stop offset="0" stop-color="#8da56f"/>
      <stop offset="0.4" stop-color="#d9d19a"/>
      <stop offset="0.72" stop-color="#efe0b4"/>
      <stop offset="1" stop-color="#72583b"/>
    </linearGradient>
  </defs>
  <rect width="1200" height="1800" fill="url(#trail)"/>
  <path d="M520 0c70 260 65 520-8 780-70 248-50 514 148 1020H420c-102-370-116-660-40-910 80-260 74-530-22-890z" fill="#f3dfb1" opacity="0.46"/>
  <path d="M0 1020c220-130 410-108 595-50 210 66 372 30 605-120v950H0z" fill="#4f6f42" opacity="0.18"/>
  <g opacity="0.35" fill="#375e35">
    <ellipse cx="1000" cy="190" rx="64" ry="160" transform="rotate(35 1000 190)"/>
    <ellipse cx="1045" cy="420" rx="70" ry="170" transform="rotate(-25 1045 420)"/>
    <ellipse cx="190" cy="255" rx="58" ry="145" transform="rotate(-45 190 255)"/>
  </g>
  <path d="M210 1250c135-40 260-28 380 38" stroke="#6f563c" stroke-width="8" fill="none" opacity="0.28" stroke-linecap="round"/>
  <path d="M700 310c92 26 180 16 265-30" stroke="#6f563c" stroke-width="6" fill="none" opacity="0.2" stroke-linecap="round"/>
</svg>
